<?xml version="1.0" encoding="UTF-8" standalone="no"?><!DOCTYPE svg PUBLIC "-//W3C//DTD SVG 1.1//EN" "http://www.w3.org/Graphics/SVG/1.1/DTD/svg11.dtd"><svg width="100%" height="100%" viewBox="0 0 770 705" version="1.1" xmlns="http://www.w3.org/2000/svg" xmlns:xlink="http://www.w3.org/1999/xlink" xml:space="preserve" xmlns:serif="http://www.serif.com/" style="fill-rule:evenodd;clip-rule:evenodd;stroke-linejoin:round;stroke-miterlimit:2;"><rect id="Mesa-de-trabajo2" serif:id="Mesa de trabajo2" x="0" y="0" width="769.755" height="704.048" style="fill:none;"/><g><path d="M291.62,29.115c34.161,0.209 131.929,-0.138 189.784,0.107c0.629,0.55 1.258,1.1 1.886,1.651c-0.37,30.361 -0.05,35.439 -0.033,47.119c-0.063,47.087 0.194,48.146 -1.932,48.54c-2.955,0.548 -135.414,-0.292 -203.62,0.31c-4.588,0.16 -4.543,-0.068 -8.728,1.533l-6.933,0.247c-2.331,0.506 -4.662,1.013 -6.993,1.519l-3.445,0.238c-1.757,0.49 -3.513,0.98 -5.27,1.47c-15.436,2.259 -49.288,18.981 -62.836,31.257c-1.212,1.102 -2.425,2.204 -3.637,3.306c-3.354,2.925 -3.506,2.507 -6.533,5.678c-1.827,1.827 -1.734,1.733 -3.441,3.53c-2.206,2.42 -2.017,2.331 -3.823,4.903c-19.595,20.682 -28.06,49.691 -30.524,54.381c-2.53,4.816 -0.149,5.42 -2.43,10.209c-0.518,1.752 -1.036,3.505 -1.554,5.257l-0.186,3.457c-0.514,2.331 -1.028,4.662 -1.542,6.993l-0.275,5.186c-1.067,4.369 -1.091,4.207 -1.412,8.741c-0.161,15.704 -0.192,15.524 0.122,31.277c0.444,1.759 0.887,3.518 1.331,5.277c0.237,2.847 0.474,5.694 0.711,8.542c0.363,1.213 0.727,2.427 1.09,3.64c0.223,2.26 0.446,4.52 0.669,6.78c0.391,1.216 0.783,2.432 1.174,3.648c0.533,1.751 1.067,3.502 1.6,5.253c0.692,4.56 11.641,47.389 45.431,76.481c3.261,3.099 3.099,3.059 6.71,5.522c18.35,17.184 46.391,26.347 57.619,27.742c1.752,0.514 3.505,1.029 5.257,1.543l1.721,0.11c3.386,1.095 3.245,1.195 6.707,0.885c9.707,0.66 9.567,0.779 19.407,0.877c7.137,1.872 7.257,0.686 47.012,0.952c14.304,0.096 14.155,-0.139 24.372,-1.022c9.124,0.059 10.069,-2.429 17.029,3.708c-1.781,14.571 -1.403,14.46 -0.46,29.271c-2.395,19.684 1.335,57.961 -1.857,61.664c-0.131,0.153 -0.08,0.168 -1.079,2.274c-6.86,-0.132 -6.691,-0.117 -13.633,0.536c-20.023,0.015 -19.854,-0.19 -40.044,0.047c-4.357,-0.541 -4.229,-0.584 -8.702,-0.172l-5.221,-0.063c-5.309,-0.616 -5.158,-0.572 -10.383,-0.337c-7.288,-1.522 -40.318,0.7 -73.249,-11.372c-4.884,-1.79 -4.781,-1.533 -10.002,-2.746c-0.361,-0.084 0.139,-0.909 -3.95,-2.432c-2.601,-0.969 -2.737,-0.415 -5.166,-1.914c-0.467,-0.288 -1.139,-0.068 -1.606,-0.356c-1.706,-1.207 -1.536,-1.176 -3.512,-1.627c-1.172,-0.555 -2.343,-1.11 -3.515,-1.665c-1.172,-0.554 -2.345,-1.109 -3.517,-1.663c-1.164,-0.573 -2.328,-1.146 -3.492,-1.719c-1.146,-0.608 -2.291,-1.216 -3.437,-1.825c-1.583,-1.252 -1.48,-1.28 -3.428,-1.843c-1.582,-1.237 -1.482,-1.282 -3.426,-1.785c-0.646,-0.478 -1.291,-0.956 -1.937,-1.434c-1.138,-0.621 -2.276,-1.243 -3.414,-1.864c-1.113,-0.644 -2.226,-1.288 -3.338,-1.932c-0.642,-0.494 -1.283,-0.987 -1.925,-1.481c-1.114,-0.652 -2.227,-1.304 -3.341,-1.955c-2.477,-2.173 -2.427,-1.934 -5.214,-3.46c-0.625,-0.525 -1.25,-1.051 -1.875,-1.576c-2.423,-2.065 -2.353,-1.885 -5.154,-3.59c-2.349,-2.201 -2.324,-1.975 -5.138,-3.559c-0.604,-0.557 -1.209,-1.114 -1.813,-1.671c-3.282,-2.962 -3.142,-2.845 -6.955,-5.217c-0.609,-0.546 -1.218,-1.092 -1.827,-1.639c-4.085,-4.005 -3.884,-3.99 -8.6,-7.069c-0.856,-0.676 -19.208,-19.223 -20.87,-20.902c-2.159,-3.418 -1.36,-4.249 -4.941,-5.373c-0.473,-0.631 0.166,-0.813 -0.356,-1.509c-0.118,-0.158 0,0 -1.696,-1.787c-1.586,-2.746 -1.337,-2.707 -3.605,-5.119c-0.534,-0.617 -1.067,-1.235 -1.601,-1.852c-0.7,-1.171 0.429,-2.225 -3.171,-3.667c-0.52,-0.681 0.133,-0.794 -0.393,-1.483c-0.119,-0.156 0,0 -1.623,-1.838c-0.665,-1.1 -1.329,-2.201 -1.994,-3.301c-0.509,-0.63 -1.017,-1.26 -1.526,-1.89c-0.5,-1.981 -0.581,-1.864 -1.86,-3.392c-0.237,-0.443 -1.837,-3.425 -3.405,-5.273c-0.635,-1.128 -1.27,-2.257 -1.905,-3.385c-0.769,-2.383 -4.413,-8.214 -4.842,-8.901c-0.166,-0.266 -1.324,-2.119 -1.883,-3.437c-0.607,-1.134 -1.214,-2.268 -1.821,-3.402c-9.55,-19.803 -15.18,-39.794 -16.183,-43.357c-0.434,-1.207 -0.869,-2.415 -1.303,-3.622c-0.265,-0.8 0.278,-0.906 -2.289,-10.286c-0.414,-1.212 -0.828,-2.424 -1.242,-3.636c-0.172,-1.694 -0.344,-3.388 -0.516,-5.082c-0.394,-1.209 -0.787,-2.419 -1.181,-3.628l-0.266,-5.179c-0.487,-1.756 -0.975,-3.513 -1.462,-5.269c-0.198,-9.728 0.906,-9.725 -1.695,-19.154c-0.148,-0.538 -0.085,-30.431 -0.079,-33.077c0.464,-2.34 0.928,-4.68 1.391,-7.02c0.106,-3.465 0.212,-6.93 0.318,-10.394c1.561,-4.219 1.352,-4.131 1.65,-8.725l0.079,-3.465c1.332,-3.378 1.446,-3.272 0.916,-6.683c0.276,-0.675 0.551,-1.35 0.827,-2.026c0.538,-1.753 1.075,-3.506 1.613,-5.259l0.154,-1.701c0.967,-2.395 1.127,-2.293 0.826,-4.919c0.212,-0.582 2.646,-7.244 2.657,-7.27c0.607,-1.733 1.214,-3.465 1.821,-5.198c2.724,-11.958 25.941,-61.985 40.024,-78.346c2.205,-2.43 1.98,-2.371 3.615,-5.099c1.694,-1.833 1.621,-1.747 3.2,-3.708c2.911,-3.258 2.891,-3.042 5.467,-6.765c1.791,-1.821 1.701,-1.728 3.42,-3.551c1.65,-1.556 20.111,-18.971 20.599,-19.474c0.556,-0.603 1.112,-1.206 1.667,-1.81c0.598,-0.561 1.195,-1.122 1.793,-1.683c4.812,-4.331 5.555,-3.067 10.165,-7.368c0.923,-0.861 0.882,-0.678 1.874,-1.568c1.465,-1.314 0.721,-1.712 2.079,-3.071c0.885,-0.511 2.103,-0.175 2.989,-0.685c1.099,-0.634 0.072,-2.117 3.904,-2.91c0.384,-0.08 0.252,-0.254 3.549,-3.383c1.131,-0.611 2.261,-1.223 3.392,-1.834c3.914,-0.84 3.089,-2.5 6.96,-3.564c1.29,-0.354 1.352,-0.445 1.42,-0.546c0.783,-1.156 -0.134,-1.352 0.597,-2.432l1.579,-0.307c1.159,-0.583 2.319,-1.167 3.478,-1.75c1.158,-0.59 2.315,-1.18 3.473,-1.77c1.165,-0.569 2.331,-1.138 3.496,-1.706c1.166,-0.571 2.332,-1.141 3.499,-1.712c1.161,-0.579 2.323,-1.158 3.484,-1.737c1.709,-0.653 3.418,-1.306 5.128,-1.958c0.56,-0.099 3.23,-0.57 6.724,-2.313c0.545,-0.36 0.162,-1.468 0.707,-1.829c0.09,-0.059 -0.487,1.045 1.223,0.553c0.18,-0.052 0,-0 1.919,-1.351c1.632,-0.288 3.264,-0.577 4.895,-0.865l1.969,-1.137c1.18,-0.535 2.36,-1.069 3.54,-1.604l0.362,-0.794c2.686,0.2 2.512,0.027 4.874,-0.918l3.319,-0.477l1.918,-1.219c3.643,-0.545 3.56,-0.4 6.953,-1.793c3.68,-0.469 3.578,-0.293 6.961,-1.754c3.711,-0.495 3.598,-0.337 6.983,-1.695l1.726,-0.06c4.542,-0.25 4.47,-0.004 8.724,-1.68l3.474,-0.055c4.557,-0.273 4.514,-0.057 8.715,-1.669l10.437,-0.089c10.609,-0.337 10.563,0.699 20.904,-1.728Z" style="fill:#6366f1;fill-opacity:0.99;"/><path d="M538.86,29.112c11.178,2.608 11.193,1.407 22.64,1.761l8.699,0.061c4.311,1.362 4.181,1.325 8.715,1.709l1.734,0.039c3.356,1.406 3.23,1.261 6.987,1.638l1.725,0.067c6.459,2.826 9.254,2.848 11.877,2.631l0.352,0.739c1.189,0.502 2.377,1.003 3.566,1.505c0.26,0.094 0.257,0.071 4.934,0.766c0.3,0.088 2.096,0.618 3.596,1.522c0.772,0.465 0.703,0.117 1.599,0.319c1.175,0.266 0.697,0.999 1.952,1.215c1.172,0.555 2.344,1.109 3.516,1.664c1.19,0.53 2.38,1.06 3.57,1.59c1.708,0.645 3.417,1.29 5.125,1.935c1.157,0.59 2.314,1.181 3.472,1.771c1.142,0.617 2.284,1.234 3.426,1.851c3.882,3.319 4.099,2.689 8.735,5.169l1.573,0.273c1.081,4.289 2.586,2.643 3.648,3.215c2.306,2.219 2.345,2.022 5.153,3.575c0.616,0.531 1.232,1.062 1.848,1.593c2.656,2.649 2.567,2.498 5.456,4.98c1.042,0.714 2.085,1.429 3.127,2.143c4.744,4.579 4.788,4.515 5.241,5.203c3.453,3.629 3.385,3.497 6.982,6.933c6.331,6.689 6.389,6.435 6.873,7.057c3.173,4.673 3.079,4.614 7.113,8.568c0.543,0.611 1.086,1.221 1.63,1.832c1.656,2.752 1.485,2.748 3.634,5.106c0.533,0.616 1.067,1.232 1.6,1.848c1.634,2.769 1.469,2.765 3.576,5.149c1.601,2.793 1.407,2.747 3.501,5.212c0.509,0.632 1.017,1.263 1.526,1.895c0.613,1.131 1.227,2.263 1.84,3.394c0.638,1.129 1.276,2.259 1.914,3.388c0.479,0.642 0.958,1.284 1.437,1.926c0.591,1.148 1.182,2.297 1.773,3.445c0.428,2.017 0.465,1.905 1.735,3.45c1.358,2.428 0.433,2.672 2.017,5.116c0.563,1.168 1.127,2.337 1.69,3.505c0.562,1.169 1.124,2.338 1.686,3.507c0.472,2.875 0.633,2.653 1.835,5.188l0.915,0.343c-0.294,2.543 -0.198,2.471 0.665,4.94c0.634,2.776 0.704,2.655 1.792,5.203c1.742,5.228 1.317,5.207 3.5,10.439c0.59,1.739 1.181,3.477 1.771,5.216c0.442,4.486 0.088,4.489 1.699,8.712l0.083,1.728c0.499,3.674 0.417,3.578 1.664,6.976l0.14,3.461c0.452,3.632 0.344,3.525 1.56,6.989c0.568,36.73 0.541,36.613 -1.703,59.189c-0.378,1.213 -0.756,2.426 -1.135,3.639c-0.561,2.816 -5.763,28.937 -9.227,34.69c-3.893,6.467 -1.925,7.179 -5.453,13.85c-0.554,1.165 -1.107,2.329 -1.661,3.494c-0.591,1.155 -1.183,2.31 -1.774,3.465c-0.574,1.164 -1.147,2.329 -1.721,3.493c-1.3,1.542 -1.353,1.432 -1.856,3.403l-0.23,1.601c-3.658,1.247 -2.373,2.433 -3.023,3.758c-1.233,1.541 -1.285,1.436 -1.849,3.42l-0.241,1.59c-3.104,0.922 -2.252,1.753 -3.264,3.609l-0.321,1.531c-3.628,1.191 -2.421,2.294 -3.176,3.686l-0.291,1.55c-1.835,0.542 -1.667,0.567 -2.945,2.106c-0.681,1.074 -1.362,2.149 -2.043,3.223c-0.266,0.29 -1.664,1.818 -3.27,3.67c-0.54,0.574 -0.532,0.524 -6.783,7.152c-7.725,8.019 -8.016,7.456 -15.934,15.383c-0.604,0.557 -1.207,1.115 -1.811,1.672c-3.728,2.273 -3.7,2.098 -6.972,5.182c-2.727,1.589 -2.729,1.423 -5.179,3.524c-2.845,1.599 -2.827,1.419 -5.215,3.491c-1.128,0.636 -2.256,1.272 -3.383,1.908c-0.624,0.516 -1.248,1.032 -1.872,1.548c-2.001,0.422 -1.888,0.506 -3.422,1.797c-2.018,0.481 -1.851,0.462 -3.495,1.712c-1.154,0.592 -2.308,1.185 -3.462,1.777c-2.804,0.521 -2.593,0.667 -5.141,1.929c-0.808,0.239 -0.682,0.221 -1.541,0.457c-0.523,0.143 0.015,0.602 -0.425,0.794c-1.822,0.792 -1.6,0.803 -3.478,1.744c-9.042,1.265 -8.763,1.943 -17.253,5.52c-3.659,0.65 -3.466,0.762 -6.935,1.847c-0.521,0.226 -1.17,-0.018 -1.691,0.208c-2.598,1.127 -2.646,0.635 -5.276,1.516c-4.48,0.495 -4.402,0.18 -8.705,1.74l-1.735,0.055c-6.213,0.299 -6.149,0.141 -12.194,1.648c-4.638,0.073 -9.277,0.145 -13.915,0.218c-9.604,-0.068 -9.491,-0.162 -19.184,0.083l-5.187,-0.01l-5.239,-0.232c-0.259,-0.263 -1.722,-1.748 -2.659,-3.768c1.124,-6.716 0.705,-6.576 0.519,-85.119c2.011,-3.184 1.88,-3.226 2.108,-3.455c3.251,0.008 3.231,0.013 3.511,0.009c1.904,-0.027 1.748,-0.153 3.501,-0.178l5.193,0.033c12.827,0.109 12.828,1.194 22.645,-1.574l3.469,-0.066c3.739,-0.397 3.629,-0.3 6.973,-1.669c3.74,-0.246 3.62,-0.319 6.93,-1.839c0.409,-0.084 14.451,-6.179 15.656,-6.95c7.394,-4.736 7.71,-4.131 14.18,-10.117c2.605,-1.851 2.577,-1.728 4.894,-3.849c1.734,-1.721 1.608,-1.572 1.734,-1.721c0.515,-0.611 0.003,-0.752 0.481,-1.318c2.928,-2.356 2.861,-2.312 5.02,-5.396c8.37,-9.23 15.242,-28.39 16.563,-29.974l0.6,-3.262c1.531,-3.385 1.371,-3.27 1.854,-6.929l1.023,-1.928l0.494,-3.339l0.278,-5.175c1.659,-4.217 1.415,-4.176 1.598,-8.72c0.027,-9.671 -0.026,-9.556 -0.077,-19.123c-0.36,-4.55 -0.333,-4.432 -1.543,-8.729c-0.106,-1.415 -0.694,-9.298 -3.699,-17.346c-8.81,-23.593 -12.184,-26.318 -17.057,-31.551c-1.723,-2.644 -1.553,-2.586 -3.692,-5.045c-2.532,-2.945 -14.889,-17.321 -40.253,-27.137l-3.271,-0.61c-1.213,-0.397 -2.426,-0.795 -3.64,-1.192l-3.329,-0.481l-3.44,-0.237c-5.194,-1.285 -5.08,-1.108 -10.472,-1.484c-11.358,-0.175 -11.197,-0.171 -22.606,-0.155c-6.982,-0.113 -6.989,-1.29 -13.634,0.862c-2.972,-1.379 -2.968,-1.342 -3.21,-1.489c-0.88,-0.538 -0.658,-18.865 -0.598,-58.639c0.118,-2.782 0.882,-20.865 0.1,-34.801c3.934,-5.165 5.123,-3.627 26.045,-3.626Z" style="fill:#6366f1;fill-opacity:0.99;"/><path d="M469.213,253.713c9.571,0.039 9.514,-0.747 18.955,0.494c0.625,1.042 1.249,2.084 1.874,3.125c0.25,17.916 0.132,382.692 0.073,386.508c-0.076,4.969 -4.255,11.233 -5.782,17.114c-3.382,1.328 -2.312,2.275 -3.095,3.628c-0.389,0.309 -2.766,2.2 -4.743,4.015c-5.308,4.872 -6.645,3.763 -6.91,3.947c-0.539,0.374 -0.2,1.45 -0.74,1.824c-3.39,-0.043 -3.299,-0.148 -6.598,0.765c-14.507,0.016 -14.414,0.02 -15.667,0.017c-6.964,-0.011 -13.927,-0.022 -20.891,-0.033c-6.032,-1.287 -5.923,-1.286 -12.11,-1.907c-2.425,-2.05 -2.364,-1.837 -5.174,-3.395c-0.568,-0.543 -3.295,-3.151 -6.906,-6.98c-0.632,-1.115 -1.264,-2.23 -1.896,-3.344c-0.183,-0.252 -1.395,-1.917 -1.773,-3.464c-0.579,-1.741 -1.158,-3.482 -1.737,-5.223l-0.075,-1.73c-2.108,-47.084 1.569,-132.089 -1.661,-167.156c1.028,-6.163 0.767,-6.059 0.003,-12.188c-0.092,-57.533 -0.131,-57.378 0.013,-114.919c-0.633,-0.955 -1.266,-1.911 -1.898,-2.866l-5.13,-0.091l-3.432,-0.075c-3.487,-0.015 -6.973,-0.029 -10.46,-0.044l-10.474,-0.025c-18.268,-0.151 -18.07,-0.167 -36.529,-0.453c-1.216,-0.356 -2.431,-0.713 -3.647,-1.069c-5.449,-1.672 -5.428,-1.329 -10.28,-4.089c-1.853,-1.737 -1.759,-1.65 -3.629,-3.315c-1.069,-1.06 -4.71,-4.926 -5.116,-5.357c-0.493,-0.636 -0.987,-1.273 -1.48,-1.909c-0.654,-1.693 -1.307,-3.385 -1.961,-5.078c-0.538,-3.578 -0.425,-3.479 -1.754,-6.961c-0.103,-21.842 -0.02,-21.733 -0.017,-43.529c0.832,-2.462 0.934,-2.277 0.866,-4.922c2.44,-5.134 2.32,-5.139 2.595,-5.545c0.651,-1.102 1.303,-2.205 1.954,-3.307c1.841,-1.848 1.727,-1.733 3.471,-3.47c2.606,-1.741 2.513,-1.577 5.052,-3.666c1.669,-1.15 1.804,-0.645 3.505,-1.689c1.74,-0.568 3.481,-1.137 5.221,-1.705c4.054,-0.085 8.109,-0.17 12.163,-0.255c5.712,0.001 5.617,-0.186 71.402,-0.386c60.013,-0.182 60.051,-0.023 64.417,-1.291Z" style="fill:#6366f1;fill-opacity:1;"/></g></svg>