<?xml version="1.0" encoding="UTF-8" standalone="no"?><!DOCTYPE svg PUBLIC "-//W3C//DTD SVG 1.1//EN" "http://www.w3.org/Graphics/SVG/1.1/DTD/svg11.dtd"><svg width="100%" height="100%" viewBox="0 0 185 169" version="1.1" xmlns="http://www.w3.org/2000/svg" xmlns:xlink="http://www.w3.org/1999/xlink" xml:space="preserve" xmlns:serif="http://www.serif.com/" style="fill-rule:evenodd;clip-rule:evenodd;stroke-linejoin:round;stroke-miterlimit:2;"><rect id="Mesa-de-trabajo2" serif:id="Mesa de trabajo2" x="0" y="0" width="184.741" height="168.972" style="fill:none;"/><g><path d="M69.989,6.988c8.199,0.05 31.663,-0.033 45.548,0.026c0.151,0.132 0.302,0.264 0.453,0.396c-0.089,7.287 -0.012,8.505 -0.008,11.308c-0.015,11.301 0.047,11.555 -0.464,11.65c-0.709,0.132 -32.499,-0.07 -48.869,0.074c-1.101,0.038 -1.09,-0.016 -2.095,0.368l-1.664,0.059c-0.559,0.122 -1.119,0.243 -1.678,0.365l-0.827,0.057c-0.422,0.118 -0.843,0.235 -1.265,0.353c-3.705,0.542 -11.829,4.555 -15.081,7.502c-0.291,0.265 -0.582,0.529 -0.873,0.794c-0.805,0.702 -0.841,0.602 -1.568,1.363c-0.438,0.438 -0.416,0.416 -0.826,0.847c-0.529,0.581 -0.484,0.559 -0.918,1.177c-4.703,4.964 -6.734,11.926 -7.326,13.051c-0.607,1.156 -0.036,1.301 -0.583,2.45c-0.124,0.421 -0.249,0.841 -0.373,1.262l-0.045,0.83c-0.123,0.559 -0.247,1.119 -0.37,1.678l-0.066,1.245c-0.256,1.049 -0.262,1.01 -0.339,2.098c-0.039,3.769 -0.046,3.726 0.029,7.506c0.106,0.422 0.213,0.844 0.319,1.266c0.057,0.683 0.114,1.367 0.171,2.05c0.087,0.291 0.174,0.582 0.262,0.874c0.054,0.542 0.107,1.085 0.161,1.627c0.094,0.292 0.188,0.584 0.282,0.876c0.128,0.42 0.256,0.84 0.384,1.261c0.166,1.094 2.794,11.373 10.903,18.355c0.783,0.744 0.744,0.734 1.61,1.325c4.404,4.124 11.134,6.323 13.829,6.658c0.421,0.123 0.841,0.247 1.262,0.37l0.413,0.027c0.813,0.263 0.779,0.287 1.61,0.212c2.33,0.158 2.296,0.187 4.658,0.21c1.713,0.449 1.742,0.165 11.283,0.229c3.433,0.023 3.397,-0.033 5.849,-0.245c2.19,0.014 2.416,-0.583 4.087,0.89c-0.428,3.497 -0.337,3.47 -0.111,7.025c-0.575,4.724 0.32,13.911 -0.446,14.799c-0.032,0.037 -0.019,0.04 -0.259,0.546c-1.646,-0.032 -1.606,-0.028 -3.272,0.129c-4.806,0.004 -4.765,-0.046 -9.61,0.011c-1.046,-0.13 -1.015,-0.14 -2.089,-0.041l-1.253,-0.015c-1.274,-0.148 -1.238,-0.137 -2.492,-0.081c-1.749,-0.365 -9.676,0.168 -17.58,-2.729c-1.172,-0.43 -1.147,-0.368 -2.4,-0.659c-0.087,-0.02 0.033,-0.218 -0.948,-0.584c-0.624,-0.233 -0.657,-0.1 -1.24,-0.459c-0.112,-0.069 -0.273,-0.016 -0.385,-0.085c-0.409,-0.29 -0.369,-0.282 -0.843,-0.391c-0.281,-0.133 -0.562,-0.266 -0.843,-0.4c-0.281,-0.133 -0.563,-0.266 -0.844,-0.399c-0.279,-0.138 -0.559,-0.275 -0.838,-0.413c-0.275,-0.146 -0.55,-0.292 -0.825,-0.438c-0.38,-0.3 -0.355,-0.307 -0.823,-0.442c-0.38,-0.297 -0.356,-0.308 -0.822,-0.428c-0.155,-0.115 -0.31,-0.229 -0.465,-0.344c-0.273,-0.149 -0.546,-0.298 -0.819,-0.447c-0.267,-0.155 -0.534,-0.309 -0.801,-0.464c-0.154,-0.118 -0.308,-0.237 -0.462,-0.355c-0.267,-0.156 -0.535,-0.313 -0.802,-0.469c-0.595,-0.522 -0.583,-0.464 -1.251,-0.83c-0.15,-0.126 -0.3,-0.252 -0.45,-0.378c-0.582,-0.496 -0.565,-0.452 -1.237,-0.862c-0.564,-0.528 -0.558,-0.474 -1.233,-0.854c-0.145,-0.134 -0.29,-0.267 -0.435,-0.401c-0.788,-0.711 -0.754,-0.683 -1.669,-1.252c-0.146,-0.131 -0.292,-0.262 -0.439,-0.393c-0.98,-0.961 -0.932,-0.958 -2.064,-1.696c-0.205,-0.162 -4.61,-4.613 -5.009,-5.017c-0.518,-0.82 -0.326,-1.02 -1.186,-1.289c-0.114,-0.152 0.04,-0.195 -0.085,-0.362c-0.028,-0.038 0,0 -0.407,-0.429c-0.381,-0.659 -0.321,-0.65 -0.865,-1.229c-0.128,-0.148 -0.256,-0.296 -0.384,-0.444c-0.168,-0.281 0.103,-0.534 -0.761,-0.88c-0.125,-0.163 0.032,-0.19 -0.094,-0.356c-0.029,-0.037 0,0 -0.39,-0.441c-0.159,-0.264 -0.319,-0.528 -0.478,-0.792c-0.122,-0.151 -0.244,-0.302 -0.366,-0.454c-0.12,-0.475 -0.139,-0.447 -0.446,-0.814c-0.057,-0.106 -0.441,-0.822 -0.817,-1.265c-0.152,-0.271 -0.305,-0.542 -0.457,-0.812c-0.184,-0.572 -1.059,-1.971 -1.162,-2.136c-0.04,-0.064 -0.318,-0.509 -0.452,-0.825c-0.146,-0.272 -0.291,-0.544 -0.437,-0.816c-2.292,-4.753 -3.643,-9.55 -3.884,-10.406c-0.104,-0.29 -0.209,-0.58 -0.313,-0.869c-0.064,-0.192 0.067,-0.217 -0.549,-2.469c-0.099,-0.291 -0.199,-0.582 -0.298,-0.873c-0.041,-0.407 -0.083,-0.813 -0.124,-1.22c-0.094,-0.29 -0.189,-0.581 -0.283,-0.871l-0.064,-1.243c-0.117,-0.422 -0.234,-0.843 -0.351,-1.265c-0.047,-2.335 0.217,-2.334 -0.407,-4.597c-0.036,-0.129 -0.02,-7.303 -0.019,-7.938c0.111,-0.562 0.223,-1.123 0.334,-1.685c0.025,-0.832 0.051,-1.663 0.076,-2.495c0.375,-1.012 0.324,-0.991 0.396,-2.094l0.019,-0.832c0.32,-0.811 0.347,-0.785 0.22,-1.604c0.066,-0.162 0.132,-0.324 0.199,-0.486c0.129,-0.421 0.258,-0.842 0.387,-1.262l0.037,-0.408c0.232,-0.575 0.271,-0.55 0.198,-1.181c0.051,-0.14 0.635,-1.738 0.638,-1.745c0.146,-0.416 0.291,-0.832 0.437,-1.248c0.654,-2.87 6.226,-14.876 9.606,-18.803c0.529,-0.583 0.475,-0.569 0.868,-1.224c0.406,-0.44 0.389,-0.419 0.768,-0.89c0.699,-0.782 0.694,-0.73 1.312,-1.624c0.43,-0.437 0.408,-0.415 0.821,-0.852c0.396,-0.373 4.827,-4.553 4.944,-4.674c0.133,-0.145 0.267,-0.29 0.4,-0.434c0.143,-0.135 0.287,-0.269 0.43,-0.404c1.155,-1.04 1.333,-0.736 2.44,-1.768c0.222,-0.207 0.212,-0.163 0.45,-0.376c0.352,-0.315 0.173,-0.411 0.499,-0.737c0.212,-0.123 0.505,-0.042 0.717,-0.164c0.264,-0.152 0.017,-0.508 0.937,-0.699c0.092,-0.019 0.06,-0.061 0.852,-0.812c0.271,-0.147 0.543,-0.293 0.814,-0.44c0.939,-0.202 0.741,-0.6 1.67,-0.855c0.31,-0.085 0.324,-0.107 0.341,-0.131c0.188,-0.277 -0.032,-0.325 0.143,-0.584l0.379,-0.074c0.278,-0.14 0.556,-0.28 0.835,-0.42c0.278,-0.142 0.556,-0.283 0.834,-0.425c0.28,-0.137 0.559,-0.273 0.839,-0.41c0.28,-0.137 0.56,-0.274 0.84,-0.411c0.279,-0.139 0.557,-0.278 0.836,-0.417c0.41,-0.157 0.82,-0.313 1.231,-0.47c0.134,-0.024 0.775,-0.137 1.614,-0.555c0.131,-0.086 0.039,-0.352 0.17,-0.439c0.022,-0.014 -0.117,0.251 0.294,0.133c0.043,-0.012 0,-0 0.46,-0.324c0.392,-0.069 0.783,-0.138 1.175,-0.208l0.473,-0.273c0.283,-0.128 0.566,-0.257 0.85,-0.385l0.087,-0.191c0.645,0.048 0.603,0.006 1.17,-0.22l0.796,-0.114l0.46,-0.293c0.874,-0.131 0.854,-0.096 1.669,-0.43c0.883,-0.113 0.859,-0.07 1.671,-0.421c0.891,-0.119 0.863,-0.081 1.676,-0.407l0.414,-0.014c1.09,-0.06 1.073,-0.001 2.094,-0.403l0.834,-0.013c1.094,-0.065 1.083,-0.014 2.092,-0.401l2.505,-0.021c2.546,-0.081 2.535,0.168 5.017,-0.415Z" style="fill:#6366f1;fill-opacity:0.99;"/><path d="M129.326,6.987c2.683,0.626 2.686,0.338 5.434,0.423l2.088,0.015c1.035,0.327 1.003,0.318 2.092,0.41l0.416,0.009c0.805,0.337 0.775,0.303 1.677,0.393l0.414,0.016c1.55,0.678 2.221,0.683 2.851,0.632l0.084,0.177c0.285,0.12 0.571,0.241 0.856,0.361c0.062,0.023 0.062,0.017 1.184,0.184c0.072,0.021 0.503,0.148 0.863,0.365c0.185,0.112 0.169,0.028 0.384,0.077c0.282,0.064 0.167,0.24 0.469,0.292c0.281,0.133 0.563,0.266 0.844,0.399c0.286,0.127 0.571,0.254 0.857,0.382c0.41,0.155 0.82,0.31 1.23,0.464c0.278,0.142 0.555,0.283 0.833,0.425c0.274,0.148 0.548,0.296 0.822,0.444c0.932,0.797 0.984,0.645 2.096,1.241l0.377,0.065c0.259,1.029 0.621,0.634 0.876,0.772c0.553,0.533 0.563,0.485 1.237,0.858c0.148,0.127 0.296,0.255 0.444,0.382c0.638,0.636 0.616,0.599 1.309,1.195c0.25,0.171 0.5,0.343 0.75,0.514c1.139,1.099 1.149,1.084 1.258,1.249c0.829,0.871 0.812,0.839 1.676,1.664c1.519,1.605 1.533,1.544 1.65,1.694c0.762,1.121 0.739,1.107 1.707,2.056c0.13,0.147 0.261,0.293 0.391,0.44c0.398,0.66 0.356,0.66 0.872,1.225c0.128,0.148 0.256,0.296 0.384,0.443c0.392,0.665 0.353,0.664 0.858,1.236c0.384,0.67 0.338,0.659 0.84,1.251c0.122,0.152 0.244,0.303 0.366,0.455c0.147,0.272 0.294,0.543 0.442,0.815c0.153,0.271 0.306,0.542 0.459,0.813c0.115,0.154 0.23,0.308 0.345,0.462c0.142,0.276 0.284,0.551 0.425,0.827c0.103,0.484 0.112,0.457 0.416,0.828c0.326,0.583 0.104,0.641 0.484,1.228c0.135,0.28 0.27,0.561 0.406,0.841c0.135,0.281 0.27,0.561 0.405,0.842c0.113,0.69 0.152,0.637 0.44,1.245l0.22,0.082c-0.07,0.61 -0.048,0.593 0.16,1.186c0.152,0.666 0.169,0.637 0.43,1.249c0.418,1.255 0.316,1.25 0.84,2.505c0.142,0.417 0.283,0.835 0.425,1.252c0.106,1.077 0.021,1.077 0.408,2.091l0.02,0.415c0.12,0.882 0.1,0.859 0.399,1.674l0.034,0.831c0.108,0.872 0.083,0.846 0.374,1.677c0.136,8.815 0.13,8.787 -0.409,14.205c-0.091,0.291 -0.182,0.582 -0.272,0.873c-0.135,0.676 -1.383,6.945 -2.214,8.326c-0.934,1.552 -0.462,1.723 -1.309,3.324c-0.133,0.279 -0.266,0.559 -0.399,0.838c-0.142,0.277 -0.284,0.554 -0.426,0.832c-0.138,0.279 -0.275,0.559 -0.413,0.838c-0.312,0.37 -0.325,0.344 -0.445,0.817l-0.055,0.384c-0.878,0.299 -0.569,0.584 -0.726,0.902c-0.296,0.37 -0.308,0.345 -0.444,0.821l-0.058,0.382c-0.745,0.221 -0.541,0.421 -0.783,0.866l-0.077,0.367c-0.871,0.286 -0.581,0.551 -0.762,0.885l-0.07,0.372c-0.44,0.13 -0.4,0.136 -0.707,0.505c-0.163,0.258 -0.327,0.516 -0.49,0.774c-0.064,0.07 -0.399,0.436 -0.785,0.881c-0.13,0.138 -0.128,0.126 -1.628,1.717c-1.854,1.925 -1.924,1.789 -3.824,3.692c-0.145,0.134 -0.29,0.268 -0.435,0.401c-0.895,0.546 -0.888,0.504 -1.673,1.244c-0.654,0.381 -0.655,0.341 -1.243,0.846c-0.683,0.384 -0.678,0.341 -1.252,0.838c-0.271,0.153 -0.541,0.305 -0.812,0.458c-0.15,0.124 -0.299,0.248 -0.449,0.371c-0.48,0.101 -0.453,0.121 -0.821,0.431c-0.484,0.115 -0.444,0.111 -0.839,0.411c-0.277,0.142 -0.554,0.284 -0.831,0.427c-0.673,0.125 -0.622,0.16 -1.234,0.463c-0.194,0.057 -0.164,0.053 -0.37,0.11c-0.125,0.034 0.004,0.145 -0.102,0.19c-0.437,0.19 -0.384,0.193 -0.835,0.419c-2.17,0.304 -2.103,0.466 -4.141,1.325c-0.878,0.156 -0.832,0.183 -1.664,0.443c-0.125,0.054 -0.281,-0.004 -0.406,0.05c-0.623,0.27 -0.635,0.153 -1.266,0.364c-1.075,0.119 -1.056,0.043 -2.089,0.418l-0.417,0.013c-1.491,0.072 -1.476,0.034 -2.927,0.396c-1.113,0.017 -2.226,0.035 -3.34,0.052c-2.305,-0.016 -2.278,-0.039 -4.604,0.02l-1.245,-0.002l-1.257,-0.056c-0.062,-0.063 -0.413,-0.42 -0.638,-0.904c0.27,-1.612 0.169,-1.578 0.125,-20.429c0.483,-0.764 0.451,-0.774 0.506,-0.829c0.78,0.002 0.775,0.003 0.843,0.002c0.457,-0.007 0.42,-0.037 0.84,-0.043l1.246,0.008c3.078,0.026 3.079,0.287 5.435,-0.378l0.833,-0.016c0.897,-0.095 0.871,-0.072 1.674,-0.401c0.898,-0.059 0.869,-0.077 1.663,-0.441c0.098,-0.02 3.468,-1.483 3.757,-1.668c1.775,-1.137 1.851,-0.991 3.403,-2.428c0.625,-0.444 0.618,-0.415 1.175,-0.924c0.416,-0.413 0.386,-0.377 0.416,-0.413c0.124,-0.147 0.001,-0.18 0.115,-0.316c0.703,-0.566 0.687,-0.555 1.205,-1.295c2.009,-2.215 3.658,-6.814 3.975,-7.194l0.144,-0.783c0.368,-0.812 0.329,-0.785 0.445,-1.663l0.245,-0.463l0.119,-0.801l0.067,-1.242c0.398,-1.012 0.34,-1.002 0.383,-2.093c0.007,-2.321 -0.006,-2.293 -0.019,-4.59c-0.086,-1.092 -0.08,-1.064 -0.37,-2.095c-0.025,-0.34 -0.166,-2.232 -0.888,-4.163c-2.114,-5.662 -2.924,-6.316 -4.094,-7.572c-0.414,-0.635 -0.373,-0.621 -0.886,-1.211c-0.608,-0.707 -3.573,-4.157 -9.661,-6.513l-0.785,-0.146c-0.291,-0.095 -0.582,-0.191 -0.874,-0.286l-0.799,-0.115l-0.825,-0.057c-1.247,-0.308 -1.219,-0.266 -2.513,-0.356c-2.726,-0.042 -2.687,-0.041 -5.426,-0.037c-1.676,-0.027 -1.677,-0.31 -3.272,0.207c-0.713,-0.331 -0.712,-0.322 -0.77,-0.357c-0.211,-0.129 -0.158,-4.528 -0.143,-14.073c0.028,-0.668 0.212,-5.008 0.024,-8.352c0.944,-1.24 1.23,-0.87 6.251,-0.87Z" style="fill:#6366f1;fill-opacity:0.99;"/><path d="M112.611,60.891c2.297,0.009 2.283,-0.179 4.549,0.119c0.15,0.25 0.3,0.5 0.45,0.75c0.06,4.3 0.032,91.846 0.018,92.762c-0.018,1.193 -1.021,2.696 -1.388,4.107c-0.812,0.319 -0.555,0.546 -0.743,0.871c-0.093,0.074 -0.664,0.528 -1.138,0.964c-1.274,1.169 -1.595,0.903 -1.658,0.947c-0.129,0.09 -0.048,0.348 -0.178,0.438c-0.814,-0.01 -0.792,-0.035 -1.584,0.184c-3.482,0.004 -3.459,0.005 -3.76,0.004c-1.671,-0.003 -3.343,-0.005 -5.014,-0.008c-1.448,-0.309 -1.422,-0.309 -2.906,-0.458c-0.582,-0.492 -0.567,-0.441 -1.242,-0.815c-0.136,-0.13 -0.791,-0.756 -1.657,-1.675c-0.152,-0.268 -0.303,-0.535 -0.455,-0.803c-0.044,-0.06 -0.335,-0.46 -0.426,-0.831c-0.139,-0.418 -0.278,-0.836 -0.417,-1.254l-0.018,-0.415c-0.506,-11.3 0.377,-31.701 -0.399,-40.117c0.247,-1.479 0.184,-1.454 0.001,-2.925c-0.022,-13.808 -0.032,-13.771 0.003,-27.581c-0.152,-0.229 -0.304,-0.459 -0.456,-0.688l-1.231,-0.022l-0.824,-0.018c-0.837,-0.004 -1.674,-0.007 -2.51,-0.011l-2.514,-0.006c-4.384,-0.036 -4.337,-0.04 -8.767,-0.109c-0.292,-0.086 -0.584,-0.171 -0.875,-0.257c-1.308,-0.401 -1.303,-0.319 -2.467,-0.981c-0.445,-0.417 -0.422,-0.396 -0.871,-0.796c-0.256,-0.254 -1.13,-1.182 -1.228,-1.286c-0.118,-0.153 -0.237,-0.305 -0.355,-0.458c-0.157,-0.406 -0.314,-0.812 -0.471,-1.219c-0.129,-0.859 -0.102,-0.835 -0.421,-1.671c-0.025,-5.242 -0.005,-5.216 -0.004,-10.447c0.2,-0.591 0.224,-0.547 0.208,-1.181c0.586,-1.232 0.557,-1.233 0.623,-1.331c0.156,-0.265 0.313,-0.529 0.469,-0.794c0.442,-0.444 0.414,-0.416 0.833,-0.833c0.625,-0.418 0.603,-0.379 1.213,-0.88c0.4,-0.276 0.433,-0.155 0.841,-0.405c0.418,-0.136 0.835,-0.273 1.253,-0.409c0.973,-0.02 1.946,-0.041 2.919,-0.061c1.371,0 1.348,-0.045 17.137,-0.093c14.403,-0.044 14.412,-0.006 15.46,-0.31Z" style="fill:#6366f1;fill-opacity:1;"/></g></svg>